<?xml version="1.0" standalone="yes"?>
<svg xmlns="http://www.w3.org/2000/svg" width="1555" height="1441">
<path style="fill:#ffffff; stroke:none;" d="M0 0L0 560C19.1016 552.642 40.1498 549.089 60 544.127L166 517.627L207 507.373C210.701 506.448 218.083 503.069 221.682 505.118C224.333 506.627 223.981 510.414 223.999 513C224.045 519.666 224 526.334 224 533L224 617L224 692L224 712C224 715.036 224.613 719.052 222.972 721.775C220.421 726.009 213.316 726.485 209 727.71C196.045 731.387 183.033 734.978 170 738.371C129.977 748.791 90.1245 759.829 50 769.873C39.3158 772.548 28.6886 775.454 18 778.127C12.1273 779.595 6.07373 781.95 0 781L0 1441L763 1441C758.268 1439.01 752.112 1439.18 747 1438.2C736.828 1436.23 726.954 1433.42 717 1430.58C675.61 1418.78 634.391 1406.38 593 1394.58C472.855 1360.32 353.073 1324.8 233 1290.29C189.313 1277.74 145.711 1264.9 102 1252.42C88.0355 1248.44 62.821 1245.95 56.3673 1231C52.4661 1221.96 56.3187 1210.3 65.0039 1205.67C71.4057 1202.26 79.0877 1201.25 86 1199.29C100.579 1195.15 115.298 1191.3 130 1187.63C221.235 1164.81 312.046 1140.03 403 1116.12C481.974 1095.35 561.025 1074.88 640 1054.12L705 1037.12C732.48 1029.89 758.416 1023.66 787 1024C806.018 1024.23 824.734 1030.55 843 1035.13C874.757 1043.08 906.339 1051.79 938 1060.12C1037.28 1086.22 1136.42 1113.2 1236 1138.13C1303.84 1155.11 1371.17 1174.09 1439 1191.13C1449.03 1193.65 1458.99 1196.48 1469 1199.12C1474.98 1200.69 1481.67 1201.68 1487 1204.99C1493.65 1209.13 1498.46 1216.98 1497.66 1225C1496.37 1238 1485.99 1242.59 1475 1245.98C1452.13 1253.01 1429 1259.37 1406 1266C1306.63 1294.64 1207.39 1323.72 1108 1352.29C1037.62 1372.52 967.421 1393.34 897 1413.42C877.316 1419.03 857.645 1424.68 838 1430.42C823.383 1434.7 808.388 1439.96 793 1440C798.951 1442.5 807.58 1441 814 1441L858 1441L1014 1441L1555 1441L1555 414C1552.19 420.687 1554 430.767 1554 438C1545.83 437.644 1537.82 434.537 1530 432.291L1490 420.709C1448.7 408.84 1407.25 397.478 1366 385.424C1238.22 348.089 1110.02 312.079 982 275.579C941.992 264.172 901.985 252.78 862 241.291C835.59 233.702 807.9 223.47 780 226.17C757.336 228.363 734.793 237.365 713 243.579C672.313 255.179 631.686 266.978 591 278.579L213 386.421L66 428.421L29 439C25.5345 439.999 18.8236 443.337 15.3179 441.672C11.2456 439.738 13 429.663 13 426L13 377C13 352.413 10.5311 326.315 14.4383 302C21.4743 258.213 50.5387 220.095 88 197.45C116.199 180.403 150.576 174.313 182 165.576C233.349 151.299 284.65 136.853 336 122.576C432.699 95.6898 529.302 68.4611 626 41.5756C657.344 32.8607 688.73 24.276 720 15.2909C737.639 10.2224 756.661 2.45959 775 1C769.049 -1.49719 760.42 0 754 0L708 0L550 0L0 0z"/>
<path style="fill:#8fccff; stroke:none;" d="M778 227C775.085 211.3 777 193.946 777 178L777 86L777 30C777 20.2511 775.733 9.521 778 0C757.71 2.62012 737.631 9.98157 718 15.5786C687.045 24.4044 656.011 32.9534 625 41.5756C528.302 68.4611 431.699 95.6898 335 122.576C283.651 136.853 232.35 151.299 181 165.576C149.576 174.313 115.199 180.403 87 197.45C49.8774 219.891 21.4047 257.646 14.4383 301C10.4803 325.631 13 352.093 13 377L13 426C13 429.462 11.1581 440.773 15.3179 442.223C19.2183 443.583 26.2101 440.092 30 439C42.6581 435.352 55.326 431.733 68 428.14C116.696 414.338 165.325 400.299 214 386.421L599 276.579C637.685 265.549 676.337 254.401 715 243.291C735.031 237.535 757.067 227.901 778 227z"/>
<path style="fill:#4cacfd; stroke:none;" d="M1554 438C1554 425.618 1555.06 413.346 1555 401C1554.94 388.686 1553.86 376.385 1554 364C1554.2 347.334 1555.42 330.701 1553.83 314C1553 305.302 1551.95 296.432 1549.57 288C1547.13 279.334 1543.32 270.949 1542 262C1537.91 259.856 1538.01 257.099 1536.05 253.286C1532.61 246.618 1528.57 239.001 1524.1 233C1510.98 215.4 1492.82 200.31 1473 190.784C1448.9 179.198 1421.66 173.709 1396 166.576C1356.98 155.73 1318.09 144.436 1279 133.849C1173.81 105.358 1069.4 73.8278 964 46.1157C917.242 33.8215 870.67 20.7764 824 8.15125C812.902 5.14905 801.486 1.28137 790 0.1698C786.935 -0.126831 780.217 -1.16125 778.028 1.60339C775.825 4.38464 777 10.672 777 14L777 47L777 175L777 212C777 215.315 775.649 222.632 778.603 224.972C782.558 228.105 793.157 225.827 798 226.039C810.412 226.584 823.059 230.73 835 233.884C884.9 247.066 934.364 262.269 984 276.421C1111.02 312.636 1238.22 348.38 1365 385.424C1406.25 397.478 1447.7 408.84 1489 420.709L1529 432.291C1537.16 434.637 1545.45 437.822 1554 438z"/>
<path style="fill:#ffffff; stroke:none;" d="M792 0C796.871 2.18774 802.803 2.74548 808 4.15125C820.665 7.57727 833.359 10.9105 846 14.4244C887.911 26.0743 930.088 36.7771 972 48.4244C1099.38 83.8246 1226.93 118.78 1354 155.291C1378.62 162.365 1403.38 168.934 1428 176C1443.34 180.403 1458.61 184.072 1473 191.27C1495.16 202.349 1514.51 219.729 1528.63 240C1538.41 254.031 1543.11 268.971 1548.33 285C1553.52 300.916 1554 317.432 1554 334C1557.41 325.882 1555 312.797 1555 304L1555 236L1555 0L792 0z"/>
<path style="fill:#83c6ff; stroke:none;" d="M1528 239C1528.68 240.58 1528.8 240.777 1530 242C1529.32 240.42 1529.2 240.223 1528 239z"/>
<path style="fill:#8fccff; stroke:none;" d="M1530 243C1530.67 245.297 1530.97 245.774 1533 247C1532.06 245.052 1531.61 244.45 1530 243M1533 248C1533.67 250.297 1533.97 250.774 1536 252C1535.06 250.052 1534.61 249.45 1533 248M1537 255C1537.38 258.442 1537.98 260.237 1541 262C1540.13 259.059 1539.17 257.162 1537 255z"/>
<path style="fill:#498ded; stroke:none;" d="M334 696C345.08 695.095 356.405 690.283 367 687.025C386.984 680.88 406.974 674.728 427 668.72C501.78 646.284 576.22 622.716 651 600.28C671.023 594.272 691.036 588.177 711 581.974C732.72 575.226 754.144 568.981 777 568C773.241 562.794 774 557.167 774 551L774 520L774 396L774 367C774 358.277 773.257 351.589 781 346C773.613 342.9 762.669 345.652 755 346.92C730.89 350.905 708.072 360.641 685 368.333C601.168 396.283 517.834 425.717 434 453.667C409.937 461.689 386.066 470.311 362 478.333C355.668 480.444 349.284 482.442 343 484.692C340.171 485.705 336.757 486.698 334.938 489.275C331.84 493.664 333 500.944 333 506L333 544L333 640C333 658.527 331.677 677.619 334 696z"/>
<path style="fill:#1870ef; stroke:none;" d="M781.004 345.742C775.136 348.015 774.03 353.406 774.001 359C773.95 368.666 774 378.334 774 388L774 519L774 554C774 557.765 772.741 564.332 776.318 566.836C780.162 569.526 786.543 568.94 791 569.579C801.497 571.087 811.791 572.966 822 575.86C862.689 587.393 903.353 599.029 944 610.709C1083.94 650.921 1224.06 690.497 1364 730.709C1408.98 743.635 1454.02 756.365 1499 769.291C1510.98 772.734 1522.99 776.085 1535 779.424C1538.57 780.417 1545.03 783.709 1548.68 782.303C1552.39 780.877 1551 773.076 1551 770L1551 733L1551 602L1551 571C1551 567.346 1552.07 561.618 1548.68 559.139C1544.45 556.041 1537 555.276 1532 553.86L1496 543.579L1377 509.579C1240.65 470.702 1104.28 431.867 968 392.709C922.556 379.651 877.117 364.784 831 354.349C819.677 351.788 808.348 349.239 797 346.79C791.991 345.709 786.054 343.786 781.004 345.742z"/>
<path style="fill:#ffffff; stroke:none;" d="M1554 357L1554 394C1555.44 390.565 1555 386.702 1555 383C1555 375.256 1557 364.159 1554 357z"/>
<path style="fill:#498ded; stroke:none;" d="M217.995 504.483C199.634 506.98 180.985 513.63 163 518.127L55 545.127L16 554.873C11.7524 555.935 3.66085 556.462 1.02778 560.419C-1.19682 563.762 0 570.167 0 574L0 607L0 732L0 770C0 773.706 -1.43964 781.475 4.05864 781.552C9.16846 781.623 15.0634 779.108 20 777.873C31.6894 774.951 43.313 771.795 55 768.873C93.7926 759.175 132.308 748.445 171 738.371C184.033 734.978 197.045 731.387 210 727.71C214.016 726.57 221.464 726.124 223.397 721.775C225.181 717.76 224 711.318 224 707L224 673L224 554L224 516C224 510.915 225.292 503.491 217.995 504.483z"/>
<path style="fill:#1870ef; stroke:none;" d="M779 900C777.449 893.487 778 886.659 778 880L778 848L778 744L778 709C778 702.964 777.136 697.292 782 693C776.381 690.642 767.958 691.784 762 692.576C748.679 694.346 735.968 696.972 723 700.576C680.47 712.395 637.532 722.756 595 734.576C541.866 749.342 488.336 762.861 435 776.884C348.263 799.69 261.737 823.31 175 846.116C134.31 856.814 93.5367 867.31 53 878.576C41.7061 881.714 30.2956 884.437 19 887.576C14.8412 888.731 8.75091 889.073 5.3179 891.854C1.81226 894.695 3 901.017 3 905L3 940L3 1050C3 1066.95 0.314551 1085.21 14.0147 1097.9C29.9935 1112.69 52.0038 1103.71 70 1098.58C115.71 1085.55 161.327 1072.16 207 1059C315.309 1027.79 423.805 997.188 532 965.576C578.276 952.055 624.635 938.798 671 925.579C693.971 919.029 716.829 911.686 740 905.895C752.859 902.681 766.251 903.035 779 900z"/>
<path style="fill:#0657d1; stroke:none;" d="M782.109 692.742C777.29 694.815 778.002 700.676 778 705L778 739L778 857L778 887C778 890.122 776.954 895.778 779.028 898.397C780.589 900.368 783.785 899.943 786 900.169C792.698 900.854 799.382 901.506 806 902.804C829.914 907.494 853.719 915.866 877 923.025C962.688 949.372 1049.31 972.677 1135 999.025C1156.91 1005.76 1178.99 1011.99 1201 1018.42C1206.67 1020.08 1212.31 1021.83 1218 1023.42C1220.22 1024.04 1223.28 1025.37 1225.57 1024.36C1229.3 1022.71 1228 1015.21 1228 1012L1228 976L1228 852L1228 820C1228 816.247 1229.03 810.513 1226.4 807.43C1224.41 805.108 1220.79 804.508 1218 803.71C1211.69 801.907 1205.32 800.332 1199 798.576C1175.05 791.919 1151.03 785.463 1127 779.116C1042.88 756.896 959.118 733.336 875 711.116C853.403 705.411 831.904 698.443 810 694.004C802.313 692.446 789.629 689.508 782.109 692.742M1332 835L1332 991L1332 1035C1332 1040.22 1330.33 1048.92 1332.6 1053.7C1334.36 1057.39 1341.49 1057.96 1345 1058.88C1356.7 1061.97 1368.34 1065.34 1380 1068.58C1417.96 1079.13 1455.97 1089.55 1494 1099.85C1510.29 1104.26 1528.65 1110.68 1542.99 1097.81C1554.61 1087.38 1554 1074.31 1554 1060L1554 1002L1554 923L1554 903C1554 900.016 1554.64 895.933 1552.97 893.279C1550.53 889.391 1543.07 888.865 1539 887.71C1525.42 883.855 1511.69 880.314 1498 876.873C1459.92 867.306 1422.1 856.652 1384 847.127C1367.4 842.977 1349.11 835.746 1332 835z"/>
<path style="fill:#0348d9; stroke:none;" d="M764 1024.42C735.729 1028.14 708.57 1035.87 681 1043.12L574 1071.12C457.38 1101.78 340.784 1132.6 224 1162.63C181.603 1173.53 139.338 1184.98 97 1196.12C83.8122 1199.58 59.3327 1201.05 55.5324 1217C54.9884 1219.28 54.9844 1221.67 55.0046 1224C55.1672 1242.73 75.7863 1245.07 90 1249.14C134.371 1261.86 178.638 1274.96 223 1287.71C351.402 1324.61 479.57 1362.33 608 1399.14C639.36 1408.13 670.685 1417.27 702 1426.42C734.945 1436.05 766.388 1444.13 801 1439.71C822.143 1437.02 842.588 1429.24 863 1423.42C900.033 1412.86 937.04 1402.22 974 1391.42C1093.91 1356.39 1213.85 1321.34 1334 1287.14C1375.06 1275.45 1415.94 1263.13 1457 1251.42C1471.88 1247.18 1494.29 1245.34 1497.53 1227C1501.36 1205.34 1478.52 1201.35 1463 1197.15C1419.76 1185.46 1376.24 1174.85 1333 1163.15C1207.95 1129.33 1082.05 1098.67 957 1064.85C923.736 1055.85 890.2 1047.8 857 1038.58C827.195 1030.29 795.322 1020.31 764 1024.42z"/>
</svg>
